<svg width="128" height="128" viewBox="0 0 100 100" xmlns="http://www.w3.org/2000/svg">

  <!-- Outer square frame -->
  <rect x="0" y="0" width="100" height="100" fill="#673AB7" rx="2" ry="2"/>
  
  <!-- Left square bracket -->
  <rect x="10" y="10" width="5" height="80" rx="2" ry="2" fill="#FFFFFF"/>
  <rect x="10" y="10" width="15" height="5" rx="2" ry="2" fill="#FFFFFF"/>    
  <rect x="10" y="85" width="15" height="5" rx="2" ry="2" fill="#FFFFFF"/>
  
  <!-- Right square bracket -->
  <rect x="85" y="10" width="5" height="80" rx="2" ry="2" fill="#FFFFFF"/>
  <rect x="75" y="10" width="15" height="5" rx="2" ry="2" fill="#FFFFFF"/>    
  <rect x="75" y="85" width="15" height="5" rx="2" ry="2" fill="#FFFFFF"/>  
  
  <!-- Top left arrow -->
  <rect x="27" y="10" width="5" height="5" rx="2" ry="2" fill="#FFFFFF"/>  
  <rect x="34" y="10" width="5" height="5" rx="2" ry="2" fill="#FFFFFF"/>  
  <polygon points="41,10 41,15 46,12.5" fill="#FFFFFF"/>
  
  <!-- Top right arrow -->  
  <rect x="68" y="10" width="5" height="5" rx="2" ry="2" fill="#FFFFFF"/>  
  <rect x="61" y="10" width="5" height="5" rx="2" ry="2" fill="#FFFFFF"/>
  <polygon points="58.5,10 58.5,15 53.5,12.5" fill="#FFFFFF"/>
  
   <!-- Bottom left arrow -->
  <rect x="27" y="85" width="5" height="5" rx="2" ry="2" fill="#FFFFFF"/>
  <rect x="34" y="85" width="5" height="5" rx="2" ry="2" fill="#FFFFFF"/>  
  <polygon points="41,85 41,90 46,87.5" fill="#FFFFFF"/>
  
  <!-- Bottom right arrow -->  
  <rect x="68" y="85" width="5" height="5" rx="2" ry="2" fill="#FFFFFF"/>
  <rect x="61" y="85" width="5" height="5" rx="2" ry="2" fill="#FFFFFF"/>      
  <polygon points="59,85 59,90 54,87.5" fill="#FFFFFF"/>
	
  <!-- Stack of files represented by rectangles -->
  <rect x="20" y="20" width="15" height="15" rx="2" ry="2" fill="#FFFFFF"/>
  <rect x="40" y="20" width="20" height="15" rx="2" ry="2" fill="#FFFFFF"/>
  <rect x="65" y="20" width="15" height="15" rx="2" ry="2" fill="#FFFFFF"/>
  
  <rect x="20" y="40" width="40" height="17" rx="2" ry="2" fill="#E91E63"/>
  <rect x="65" y="40" width="15" height="17" rx="2" ry="2" fill="#E91E63"/>  
  
  <rect x="20" y="62" width="25" height="18" rx="2" ry="2" fill="#03A9F4"/>
  <rect x="50" y="62" width="30" height="18" rx="2" ry="2" fill="#03A9F4"/>
</svg>
